<svg version="1.1" width="16" height="16" xmlns="http://www.w3.org/2000/svg">
    <path d="M 7.998 0.002 C 8.027 0.001 8.027 0.001 8.058 0 C 8.24 0.033 8.364 0.183 8.489 0.31 C 8.519 0.341 8.55 0.372 8.581 0.403 C 8.688 0.513 8.792 0.623 8.893 0.74 C 8.913 0.762 8.933 0.785 8.952 0.807 C 9.264 1.156 9.529 1.528 9.762 1.935 C 9.772 1.951 9.782 1.966 9.791 1.984 C 10.058 2.454 10.238 2.973 10.337 3.503 C 10.34 3.519 10.344 3.536 10.347 3.554 C 10.366 3.663 10.374 3.773 10.381 3.884 C 10.382 3.906 10.382 3.906 10.383 3.929 C 10.385 3.967 10.389 4.002 10.391 4.039 C 10.404 4.039 10.419 4.039 10.434 4.039 C 10.791 4.037 11.147 4.036 11.502 4.036 C 11.674 4.036 11.848 4.036 12.019 4.035 C 12.169 4.035 12.32 4.032 12.469 4.032 C 12.55 4.032 12.628 4.032 12.708 4.031 C 12.783 4.031 12.859 4.031 12.934 4.031 C 12.973 4.031 13.013 4.031 13.053 4.031 C 13.364 4.031 13.617 4.12 13.844 4.334 C 14.144 4.643 14.225 4.979 14.222 5.405 C 14.222 5.436 14.222 5.465 14.222 5.497 C 14.222 5.579 14.222 5.662 14.222 5.745 C 14.222 5.835 14.222 5.926 14.222 6.015 C 14.222 6.172 14.222 6.327 14.222 6.482 C 14.222 6.707 14.222 6.932 14.221 7.157 C 14.221 7.523 14.221 7.888 14.22 8.252 C 14.22 8.607 14.22 8.96 14.22 9.315 C 14.22 9.338 14.22 9.358 14.22 9.382 C 14.22 9.491 14.22 9.6 14.22 9.71 C 14.218 10.619 14.216 11.529 14.215 12.438 C 14.235 12.438 14.253 12.437 14.272 12.437 C 14.344 12.436 14.415 12.436 14.486 12.436 C 14.518 12.435 14.548 12.435 14.579 12.433 C 14.961 12.428 15.29 12.509 15.571 12.781 C 15.598 12.808 15.627 12.835 15.653 12.863 C 15.674 12.885 15.674 12.885 15.694 12.906 C 15.939 13.163 16.004 13.517 16 13.859 C 15.977 14.295 15.805 14.665 15.491 14.97 C 15.106 15.293 14.648 15.305 14.169 15.303 C 14.114 15.303 14.058 15.303 14.001 15.303 C 13.882 15.303 13.761 15.303 13.639 15.303 C 13.459 15.303 13.28 15.303 13.1 15.303 C 12.78 15.303 12.459 15.303 12.139 15.303 C 11.858 15.303 11.576 15.303 11.296 15.303 C 11.276 15.303 11.259 15.303 11.238 15.303 C 11.164 15.303 11.087 15.303 11.012 15.303 C 10.302 15.303 9.592 15.303 8.882 15.302 C 8.253 15.302 7.623 15.301 6.991 15.302 C 6.831 15.302 6.669 15.302 6.508 15.302 C 6.487 15.302 6.468 15.302 6.447 15.302 C 5.92 15.302 5.393 15.302 4.866 15.302 C 4.809 15.302 4.752 15.302 4.696 15.302 C 4.659 15.302 4.62 15.302 4.582 15.302 C 4.302 15.301 4.021 15.301 3.742 15.302 C 3.422 15.302 3.102 15.302 2.784 15.301 C 2.606 15.301 2.427 15.301 2.247 15.301 C 2.129 15.301 2.009 15.301 1.89 15.301 C 1.822 15.301 1.754 15.301 1.687 15.301 C 1.043 15.302 1.043 15.302 0.772 15.159 C 0.757 15.152 0.744 15.145 0.73 15.137 C 0.607 15.07 0.507 14.989 0.412 14.888 C 0.398 14.872 0.385 14.857 0.369 14.843 C 0.049 14.473 -0.025 14.025 0.008 13.552 C 0.041 13.216 0.234 12.932 0.485 12.718 C 0.797 12.476 1.135 12.435 1.516 12.437 C 1.555 12.437 1.555 12.437 1.596 12.437 C 1.66 12.437 1.724 12.438 1.787 12.438 C 1.787 12.423 1.787 12.409 1.787 12.392 C 1.785 11.492 1.782 10.592 1.778 9.69 C 1.778 9.583 1.778 9.475 1.777 9.365 C 1.777 9.345 1.777 9.323 1.777 9.3 C 1.776 8.952 1.775 8.604 1.773 8.255 C 1.772 7.897 1.771 7.539 1.77 7.182 C 1.769 6.961 1.767 6.74 1.767 6.519 C 1.766 6.369 1.766 6.216 1.766 6.065 C 1.765 5.978 1.765 5.891 1.765 5.803 C 1.764 5.723 1.764 5.642 1.764 5.563 C 1.764 5.534 1.764 5.505 1.764 5.476 C 1.761 5.059 1.832 4.681 2.124 4.37 C 2.398 4.099 2.688 4.031 3.064 4.035 C 3.091 4.035 3.118 4.035 3.147 4.035 C 3.221 4.035 3.298 4.035 3.373 4.036 C 3.451 4.036 3.531 4.036 3.608 4.036 C 3.758 4.036 3.907 4.036 4.056 4.036 C 4.227 4.036 4.396 4.037 4.567 4.037 C 4.916 4.037 5.264 4.038 5.613 4.039 C 5.614 4.028 5.616 4.016 5.617 4.004 C 5.623 3.951 5.627 3.897 5.633 3.844 C 5.635 3.827 5.636 3.808 5.638 3.789 C 5.651 3.66 5.668 3.531 5.695 3.405 C 5.698 3.384 5.704 3.364 5.707 3.344 C 5.924 2.376 6.434 1.516 7.092 0.78 C 7.107 0.762 7.124 0.742 7.141 0.724 C 7.171 0.693 7.199 0.66 7.228 0.629 C 7.254 0.601 7.279 0.572 7.303 0.543 C 7.398 0.433 7.497 0.329 7.599 0.225 C 7.624 0.202 7.624 0.202 7.647 0.177 C 7.671 0.154 7.671 0.154 7.694 0.13 C 7.716 0.109 7.716 0.109 7.736 0.087 C 7.817 0.02 7.895 0.005 7.998 0.002 Z M 7.925 0.669 C 7.903 0.693 7.879 0.717 7.857 0.74 C 7.844 0.752 7.832 0.764 7.821 0.776 C 7.735 0.864 7.655 0.952 7.577 1.045 C 7.559 1.064 7.54 1.084 7.522 1.106 C 7.385 1.263 7.258 1.424 7.138 1.594 C 7.112 1.63 7.085 1.667 7.058 1.703 C 6.469 2.512 6.136 3.446 6.136 4.447 C 6.136 4.501 6.135 4.555 6.135 4.609 C 6.134 4.867 6.134 5.139 6.193 5.392 C 6.201 5.436 6.201 5.436 6.162 5.495 C 6.106 5.553 6.047 5.605 5.986 5.658 C 5.929 5.706 5.873 5.757 5.819 5.806 C 5.746 5.874 5.673 5.941 5.599 6.005 C 5.493 6.102 5.39 6.201 5.285 6.298 C 5.271 6.311 5.258 6.325 5.245 6.338 C 5.229 6.351 5.216 6.364 5.202 6.378 C 5.161 6.415 5.122 6.445 5.076 6.475 C 4.977 6.546 4.886 6.622 4.849 6.744 C 4.825 6.903 4.831 7.061 4.838 7.221 C 4.838 7.272 4.839 7.324 4.839 7.375 C 4.84 7.495 4.841 7.617 4.843 7.737 C 4.847 7.875 4.849 8.012 4.85 8.149 C 4.853 8.433 4.858 8.715 4.864 8.997 C 4.938 8.963 4.984 8.922 5.041 8.863 C 5.114 8.788 5.188 8.718 5.265 8.652 C 5.321 8.604 5.376 8.552 5.431 8.502 C 5.498 8.44 5.564 8.381 5.633 8.32 C 5.739 8.229 5.84 8.132 5.943 8.038 C 6.082 7.909 6.221 7.781 6.362 7.654 C 6.378 7.637 6.396 7.623 6.412 7.607 C 6.469 7.555 6.526 7.507 6.586 7.459 C 6.579 7.443 6.572 7.425 6.567 7.409 C 6.291 6.652 6.291 6.652 6.24 6.327 C 6.423 6.275 6.604 6.229 6.787 6.185 C 6.788 6.196 6.789 6.209 6.79 6.221 C 6.801 6.352 6.824 6.473 6.859 6.599 C 6.867 6.63 6.867 6.63 6.874 6.66 C 6.916 6.814 6.965 6.966 7.015 7.119 C 7.027 7.148 7.027 7.148 7.036 7.177 C 7.112 7.391 7.203 7.594 7.293 7.803 C 7.762 7.803 8.229 7.803 8.711 7.803 C 8.815 7.555 8.913 7.315 8.996 7.061 C 9.001 7.046 9.006 7.031 9.011 7.014 C 9.101 6.748 9.175 6.48 9.236 6.204 C 9.368 6.226 9.491 6.251 9.615 6.298 C 9.639 6.308 9.663 6.316 9.689 6.326 C 9.706 6.332 9.724 6.339 9.743 6.346 C 9.734 6.483 9.71 6.607 9.669 6.739 C 9.663 6.755 9.659 6.772 9.653 6.79 C 9.583 7.015 9.509 7.242 9.418 7.459 C 9.769 7.789 9.769 7.789 10.123 8.114 C 10.229 8.208 10.331 8.304 10.432 8.401 C 10.511 8.475 10.592 8.547 10.673 8.619 C 10.741 8.678 10.806 8.739 10.871 8.799 C 10.884 8.811 10.897 8.823 10.91 8.836 C 10.962 8.886 11.014 8.934 11.065 8.986 C 11.096 9.022 11.096 9.022 11.138 9.019 C 11.144 8.722 11.148 8.424 11.152 8.129 C 11.152 7.991 11.155 7.853 11.158 7.715 C 11.16 7.582 11.161 7.448 11.162 7.316 C 11.162 7.265 11.164 7.214 11.165 7.164 C 11.183 6.854 11.183 6.854 11.052 6.588 C 10.967 6.501 10.967 6.501 10.855 6.469 C 10.855 6.454 10.855 6.441 10.855 6.427 C 10.83 6.4 10.83 6.4 10.794 6.372 C 10.709 6.3 10.628 6.226 10.548 6.15 C 10.521 6.126 10.495 6.1 10.468 6.075 C 10.448 6.057 10.448 6.057 10.428 6.038 C 10.362 5.975 10.293 5.914 10.226 5.85 C 10.167 5.795 10.107 5.742 10.05 5.686 C 10.03 5.668 10.03 5.668 10.01 5.65 C 9.984 5.625 9.959 5.601 9.935 5.577 C 9.878 5.516 9.878 5.516 9.804 5.497 C 9.805 5.473 9.805 5.473 9.808 5.45 C 9.877 4.86 9.928 4.238 9.804 3.653 C 9.799 3.634 9.795 3.615 9.79 3.594 C 9.617 2.778 9.264 2.046 8.736 1.399 C 8.711 1.369 8.686 1.337 8.66 1.305 C 8.584 1.211 8.507 1.121 8.42 1.036 C 8.385 1.002 8.352 0.965 8.32 0.927 C 8.258 0.855 8.194 0.787 8.128 0.72 C 8.113 0.705 8.113 0.705 8.097 0.689 C 8.073 0.666 8.047 0.642 8.022 0.619 C 7.974 0.614 7.974 0.614 7.925 0.669 Z M 2.38 4.837 C 2.266 5.011 2.265 5.189 2.268 5.392 C 2.268 5.424 2.266 5.453 2.266 5.483 C 2.266 5.567 2.268 5.65 2.268 5.734 C 2.268 5.824 2.268 5.914 2.268 6.004 C 2.268 6.158 2.268 6.316 2.268 6.471 C 2.269 6.696 2.269 6.922 2.269 7.148 C 2.269 7.514 2.269 7.878 2.269 8.244 C 2.27 8.599 2.27 8.954 2.271 9.31 C 2.271 9.33 2.271 9.353 2.271 9.375 C 2.271 9.485 2.271 9.596 2.271 9.705 C 2.271 10.616 2.272 11.528 2.274 12.438 C 3.063 12.438 3.85 12.438 4.662 12.438 C 4.788 12.246 4.788 12.246 4.843 12.034 C 4.809 12.034 4.809 12.034 4.773 12.034 C 4.552 12.033 4.33 12.031 4.109 12.03 C 3.995 12.03 3.881 12.029 3.768 12.029 C 3.657 12.027 3.547 12.027 3.437 12.026 C 3.395 12.025 3.354 12.025 3.311 12.025 C 3.252 12.025 3.194 12.025 3.135 12.024 C 3.117 12.024 3.1 12.024 3.084 12.024 C 2.968 12.023 2.874 12.001 2.78 11.932 C 2.698 11.831 2.676 11.727 2.676 11.6 C 2.676 11.576 2.676 11.555 2.676 11.531 C 2.676 11.507 2.676 11.482 2.676 11.457 C 2.676 11.429 2.676 11.404 2.676 11.376 C 2.675 11.303 2.675 11.23 2.675 11.158 C 2.675 11.078 2.675 10.999 2.675 10.921 C 2.675 10.748 2.675 10.576 2.675 10.403 C 2.675 10.295 2.674 10.187 2.674 10.08 C 2.674 9.782 2.674 9.484 2.674 9.186 C 2.674 9.168 2.674 9.148 2.674 9.128 C 2.674 9.11 2.674 9.091 2.674 9.07 C 2.674 9.032 2.674 8.994 2.674 8.954 C 2.674 8.935 2.674 8.915 2.674 8.897 C 2.674 8.584 2.674 8.273 2.674 7.961 C 2.671 7.643 2.671 7.321 2.671 7.002 C 2.671 6.823 2.671 6.644 2.671 6.463 C 2.67 6.311 2.67 6.158 2.67 6.005 C 2.67 5.928 2.67 5.849 2.67 5.771 C 2.67 5.686 2.67 5.603 2.67 5.517 C 2.67 5.493 2.67 5.469 2.67 5.444 C 2.671 5.292 2.676 5.157 2.786 5.043 C 2.881 4.986 2.968 4.965 3.078 4.965 C 3.101 4.965 3.123 4.965 3.147 4.965 C 3.183 4.964 3.183 4.964 3.221 4.964 C 3.261 4.964 3.261 4.964 3.3 4.964 C 3.371 4.963 3.443 4.963 3.514 4.963 C 3.589 4.961 3.663 4.961 3.738 4.96 C 3.878 4.959 4.02 4.959 4.161 4.958 C 4.321 4.957 4.482 4.956 4.642 4.955 C 4.973 4.954 5.302 4.951 5.635 4.949 C 5.631 4.894 5.627 4.839 5.625 4.783 C 5.624 4.767 5.623 4.751 5.623 4.735 C 5.622 4.712 5.622 4.712 5.621 4.689 C 5.619 4.675 5.618 4.661 5.617 4.646 C 5.613 4.604 5.605 4.566 5.593 4.525 C 5.238 4.522 4.885 4.521 4.529 4.519 C 4.365 4.519 4.201 4.518 4.036 4.518 C 3.891 4.517 3.748 4.515 3.604 4.515 C 3.527 4.515 3.452 4.515 3.376 4.514 C 3.304 4.513 3.233 4.513 3.161 4.513 C 3.122 4.513 3.084 4.513 3.045 4.512 C 2.768 4.514 2.55 4.617 2.38 4.837 Z M 10.41 4.525 C 10.394 4.618 10.386 4.709 10.389 4.805 C 10.389 4.819 10.39 4.832 10.39 4.848 C 10.39 4.883 10.39 4.916 10.391 4.949 C 10.403 4.949 10.417 4.949 10.431 4.949 C 10.761 4.949 11.089 4.952 11.419 4.954 C 11.579 4.954 11.737 4.955 11.896 4.955 C 12.035 4.955 12.175 4.956 12.312 4.957 C 12.386 4.957 12.46 4.958 12.534 4.958 C 12.615 4.958 12.697 4.958 12.78 4.959 C 12.815 4.959 12.815 4.959 12.853 4.958 C 12.993 4.96 13.085 4.976 13.203 5.051 C 13.283 5.136 13.307 5.186 13.307 5.3 C 13.307 5.323 13.307 5.346 13.307 5.37 C 13.307 5.395 13.307 5.421 13.307 5.447 C 13.307 5.474 13.307 5.5 13.307 5.528 C 13.307 5.604 13.309 5.679 13.309 5.753 C 13.309 5.834 13.309 5.914 13.309 5.994 C 13.309 6.19 13.309 6.385 13.309 6.579 C 13.309 6.671 13.309 6.763 13.309 6.856 C 13.309 7.16 13.31 7.464 13.31 7.77 C 13.31 7.848 13.31 7.929 13.31 8.007 C 13.31 8.026 13.31 8.046 13.31 8.067 C 13.31 8.385 13.311 8.704 13.311 9.022 C 13.313 9.349 13.313 9.678 13.313 10.004 C 13.314 10.187 13.314 10.371 13.314 10.555 C 13.315 10.711 13.315 10.868 13.315 11.024 C 13.315 11.105 13.315 11.184 13.315 11.264 C 13.315 11.337 13.315 11.411 13.315 11.483 C 13.315 11.522 13.315 11.561 13.316 11.601 C 13.315 11.735 13.307 11.824 13.224 11.932 C 13.12 12.021 12.997 12.025 12.867 12.024 C 12.849 12.024 12.829 12.024 12.81 12.025 C 12.748 12.025 12.687 12.025 12.626 12.025 C 12.582 12.026 12.539 12.026 12.496 12.026 C 12.384 12.027 12.272 12.029 12.159 12.029 C 12.045 12.029 11.93 12.03 11.815 12.031 C 11.59 12.031 11.365 12.034 11.138 12.034 C 11.184 12.171 11.243 12.305 11.3 12.438 C 12.095 12.438 12.891 12.438 13.709 12.438 C 13.714 11.518 13.717 10.596 13.721 9.675 C 13.721 9.567 13.721 9.457 13.721 9.348 C 13.721 9.316 13.721 9.316 13.721 9.283 C 13.724 8.933 13.726 8.582 13.728 8.231 C 13.73 7.871 13.73 7.511 13.731 7.153 C 13.732 6.93 13.733 6.708 13.734 6.486 C 13.736 6.334 13.737 6.181 13.737 6.029 C 13.737 5.941 13.737 5.855 13.737 5.766 C 13.738 5.685 13.738 5.605 13.738 5.524 C 13.738 5.496 13.738 5.466 13.739 5.437 C 13.743 5.155 13.694 4.919 13.494 4.713 C 13.358 4.587 13.194 4.522 13.01 4.522 C 12.987 4.522 12.964 4.522 12.941 4.522 C 12.904 4.522 12.904 4.522 12.864 4.522 C 12.837 4.522 12.812 4.522 12.783 4.522 C 12.711 4.522 12.639 4.522 12.567 4.523 C 12.491 4.523 12.414 4.523 12.34 4.523 C 12.195 4.523 12.052 4.523 11.909 4.523 C 11.745 4.523 11.581 4.523 11.419 4.524 C 11.083 4.524 10.746 4.524 10.41 4.525 Z M 3.371 5.672 C 3.327 5.757 3.31 5.849 3.339 5.941 C 3.383 6.026 3.44 6.085 3.529 6.123 C 3.614 6.138 3.696 6.138 3.781 6.139 C 3.818 6.139 3.818 6.139 3.856 6.14 C 3.907 6.14 3.959 6.14 4.012 6.14 C 4.09 6.14 4.17 6.142 4.247 6.143 C 4.298 6.144 4.348 6.144 4.398 6.144 C 4.423 6.145 4.444 6.145 4.47 6.146 C 4.63 6.144 4.709 6.103 4.822 5.99 C 4.837 5.974 4.85 5.957 4.864 5.941 C 4.893 5.914 4.92 5.886 4.948 5.858 C 4.961 5.846 4.975 5.833 4.987 5.818 C 5.04 5.766 5.096 5.718 5.153 5.671 C 5.191 5.636 5.219 5.598 5.249 5.558 C 5.027 5.555 4.805 5.553 4.582 5.553 C 4.479 5.552 4.377 5.552 4.274 5.551 C 4.173 5.551 4.075 5.55 3.974 5.55 C 3.937 5.55 3.898 5.55 3.861 5.548 C 3.806 5.548 3.755 5.548 3.7 5.548 C 3.685 5.546 3.668 5.546 3.653 5.546 C 3.529 5.548 3.461 5.589 3.371 5.672 Z M 11.706 6.164 C 11.706 6.325 11.706 6.485 11.706 6.65 C 11.835 6.677 11.961 6.675 12.094 6.675 C 12.14 6.675 12.186 6.677 12.231 6.677 C 12.261 6.677 12.292 6.677 12.321 6.678 C 12.347 6.678 12.374 6.678 12.401 6.678 C 12.503 6.668 12.568 6.634 12.645 6.567 C 12.691 6.485 12.693 6.417 12.677 6.327 C 12.635 6.244 12.6 6.2 12.516 6.164 C 12.475 6.158 12.475 6.158 12.432 6.158 C 12.415 6.158 12.4 6.158 12.383 6.158 C 12.356 6.159 12.356 6.159 12.33 6.159 C 12.304 6.159 12.304 6.159 12.276 6.159 C 12.219 6.159 12.162 6.162 12.106 6.162 C 12.066 6.163 12.029 6.163 11.989 6.163 C 11.895 6.163 11.801 6.163 11.706 6.164 Z M 3.349 7.304 C 3.31 7.398 3.315 7.471 3.352 7.564 C 3.402 7.643 3.439 7.692 3.529 7.723 C 3.585 7.724 3.642 7.725 3.698 7.724 C 3.714 7.724 3.731 7.724 3.749 7.724 C 3.802 7.724 3.854 7.724 3.907 7.724 C 3.943 7.724 3.978 7.724 4.014 7.724 C 4.102 7.724 4.19 7.724 4.278 7.723 C 4.294 7.652 4.3 7.586 4.3 7.515 C 4.3 7.494 4.3 7.474 4.3 7.455 C 4.299 7.434 4.299 7.413 4.299 7.392 C 4.299 7.372 4.299 7.352 4.299 7.329 C 4.299 7.279 4.298 7.227 4.298 7.176 C 4.189 7.174 4.077 7.173 3.968 7.172 C 3.93 7.172 3.892 7.171 3.855 7.171 C 3.802 7.168 3.747 7.168 3.693 7.168 C 3.677 7.168 3.661 7.167 3.643 7.167 C 3.513 7.167 3.433 7.2 3.349 7.304 Z M 12.393 7.784 C 12.367 7.815 12.34 7.85 12.312 7.884 C 12.27 7.922 12.228 7.958 12.184 7.994 C 12.143 8.025 12.143 8.025 12.151 8.087 C 12.175 8.119 12.175 8.119 12.207 8.15 C 12.218 8.163 12.23 8.174 12.242 8.185 C 12.254 8.198 12.268 8.21 12.278 8.222 C 12.293 8.235 12.305 8.247 12.316 8.259 C 12.376 8.327 12.376 8.327 12.454 8.35 C 12.487 8.317 12.487 8.317 12.521 8.275 C 12.577 8.209 12.636 8.148 12.697 8.087 C 12.664 8.009 12.613 7.952 12.556 7.889 C 12.539 7.869 12.521 7.849 12.504 7.83 C 12.459 7.777 12.459 7.777 12.393 7.784 Z M 7.273 8.371 C 7.273 9.733 7.273 11.096 7.273 12.499 C 7.441 12.499 7.608 12.499 7.779 12.499 C 7.779 11.144 7.779 9.787 7.779 8.39 C 7.619 8.337 7.443 8.371 7.273 8.371 Z M 8.224 8.371 C 8.224 9.733 8.224 11.096 8.224 12.499 C 8.391 12.499 8.559 12.499 8.73 12.499 C 8.73 11.136 8.73 9.774 8.73 8.371 C 8.563 8.371 8.397 8.371 8.224 8.371 Z M 3.359 9.181 C 3.329 9.268 3.315 9.332 3.347 9.422 C 3.402 9.509 3.423 9.537 3.523 9.569 C 3.607 9.587 3.688 9.588 3.775 9.584 C 3.799 9.583 3.799 9.583 3.821 9.583 C 3.868 9.582 3.915 9.58 3.965 9.578 C 3.996 9.575 4.029 9.574 4.062 9.573 C 4.139 9.571 4.219 9.568 4.298 9.564 C 4.298 9.48 4.299 9.397 4.299 9.312 C 4.299 9.277 4.299 9.277 4.3 9.24 C 4.3 9.218 4.3 9.194 4.3 9.172 C 4.3 9.15 4.3 9.129 4.3 9.108 C 4.303 9.059 4.303 9.059 4.278 9.039 C 4.173 9.032 4.067 9.032 3.965 9.032 C 3.928 9.031 3.893 9.031 3.859 9.03 C 3.806 9.029 3.757 9.029 3.707 9.028 C 3.69 9.028 3.675 9.026 3.658 9.026 C 3.529 9.026 3.434 9.069 3.359 9.181 Z M 11.706 9.058 C 11.706 9.226 11.706 9.392 11.706 9.564 C 11.818 9.567 11.932 9.569 12.045 9.571 C 12.084 9.571 12.122 9.571 12.16 9.572 C 12.215 9.573 12.27 9.573 12.327 9.574 C 12.343 9.574 12.36 9.575 12.378 9.575 C 12.463 9.575 12.519 9.571 12.585 9.516 C 12.659 9.44 12.677 9.398 12.675 9.292 C 12.651 9.194 12.606 9.136 12.522 9.076 C 12.449 9.05 12.376 9.053 12.298 9.055 C 12.274 9.055 12.274 9.055 12.248 9.055 C 12.193 9.055 12.14 9.055 12.085 9.056 C 12.049 9.056 12.012 9.056 11.976 9.056 C 11.886 9.057 11.795 9.057 11.706 9.058 Z M 6.807 9.1 C 6.78 9.157 6.753 9.215 6.725 9.273 C 6.718 9.289 6.709 9.303 6.703 9.321 C 6.567 9.608 6.434 9.898 6.3 10.19 C 6.267 10.265 6.234 10.34 6.2 10.417 C 6.19 10.436 6.182 10.455 6.174 10.474 C 6.121 10.589 6.07 10.701 6.018 10.815 C 6.009 10.837 6.009 10.837 6 10.858 C 5.993 10.871 5.987 10.885 5.979 10.899 C 5.861 11.159 5.744 11.42 5.627 11.682 C 5.622 11.697 5.614 11.71 5.607 11.725 C 5.493 11.982 5.381 12.24 5.27 12.499 C 5.783 12.499 6.298 12.499 6.828 12.499 C 6.828 11.377 6.828 10.256 6.828 9.1 C 6.821 9.1 6.814 9.1 6.807 9.1 Z M 9.175 9.1 C 9.175 10.221 9.175 11.344 9.175 12.499 C 9.69 12.499 10.204 12.499 10.734 12.499 C 10.628 12.257 10.628 12.257 10.52 12.015 C 10.507 11.987 10.493 11.959 10.481 11.932 C 10.475 11.918 10.468 11.905 10.462 11.889 C 10.34 11.625 10.22 11.36 10.103 11.096 C 10.096 11.079 10.089 11.065 10.082 11.049 C 10.056 10.989 10.029 10.927 10.002 10.867 C 9.913 10.67 9.826 10.471 9.736 10.273 C 9.696 10.182 9.654 10.089 9.614 9.998 C 9.581 9.925 9.547 9.852 9.515 9.78 C 9.499 9.744 9.483 9.709 9.467 9.673 C 9.381 9.479 9.293 9.287 9.196 9.1 C 9.189 9.1 9.183 9.1 9.175 9.1 Z M 11.26 10.516 C 11.225 10.619 11.235 10.729 11.233 10.838 C 11.233 10.861 11.232 10.886 11.232 10.909 C 11.231 10.932 11.231 10.957 11.231 10.979 C 11.231 11 11.23 11.023 11.23 11.043 C 11.243 11.12 11.263 11.152 11.321 11.204 C 11.456 11.236 11.597 11.225 11.735 11.223 C 11.771 11.223 11.771 11.223 11.807 11.223 C 11.858 11.223 11.908 11.222 11.957 11.22 C 12.034 11.22 12.111 11.219 12.188 11.218 C 12.238 11.216 12.285 11.215 12.334 11.214 C 12.357 11.214 12.381 11.214 12.404 11.214 C 12.437 11.213 12.437 11.213 12.469 11.212 C 12.498 11.212 12.498 11.212 12.526 11.212 C 12.585 11.203 12.613 11.184 12.657 11.144 C 12.692 11.039 12.682 10.931 12.683 10.823 C 12.684 10.797 12.684 10.773 12.685 10.749 C 12.685 10.715 12.685 10.715 12.685 10.679 C 12.687 10.656 12.687 10.637 12.687 10.615 C 12.674 10.542 12.647 10.508 12.598 10.455 C 12.543 10.428 12.501 10.431 12.44 10.431 C 12.416 10.43 12.392 10.43 12.368 10.43 C 12.341 10.43 12.315 10.43 12.288 10.43 C 12.248 10.429 12.248 10.429 12.209 10.429 C 12.152 10.429 12.095 10.429 12.039 10.428 C 11.966 10.428 11.894 10.428 11.819 10.428 C 11.765 10.427 11.71 10.427 11.653 10.427 C 11.615 10.427 11.575 10.426 11.534 10.426 C 11.498 10.426 11.498 10.426 11.462 10.426 C 11.44 10.426 11.419 10.426 11.396 10.425 C 11.327 10.438 11.303 10.461 11.26 10.516 Z M 3.387 10.596 C 3.328 10.686 3.313 10.754 3.326 10.86 C 3.368 10.934 3.397 10.976 3.468 11.021 C 3.527 11.026 3.584 11.028 3.642 11.028 C 3.668 11.028 3.668 11.028 3.695 11.028 C 3.731 11.029 3.768 11.029 3.803 11.029 C 3.859 11.029 3.913 11.03 3.969 11.03 C 4.004 11.03 4.04 11.031 4.075 11.031 C 4.091 11.031 4.109 11.031 4.125 11.031 C 4.232 11.031 4.294 11.013 4.38 10.941 C 4.427 10.871 4.441 10.833 4.438 10.748 C 4.415 10.661 4.382 10.588 4.306 10.534 C 4.235 10.508 4.165 10.509 4.09 10.508 C 4.066 10.508 4.066 10.508 4.041 10.508 C 4.005 10.508 3.972 10.508 3.938 10.508 C 3.886 10.508 3.833 10.508 3.781 10.507 C 3.748 10.507 3.714 10.507 3.68 10.507 C 3.666 10.507 3.65 10.506 3.634 10.506 C 3.529 10.507 3.469 10.527 3.387 10.596 Z M 0.679 13.215 C 0.567 13.349 0.491 13.512 0.504 13.687 C 0.534 13.844 0.624 13.95 0.756 14.037 C 0.876 14.1 0.972 14.106 1.104 14.105 C 1.136 14.105 1.136 14.105 1.167 14.105 C 1.235 14.105 1.305 14.105 1.373 14.104 C 1.422 14.104 1.471 14.104 1.52 14.104 C 1.626 14.104 1.732 14.104 1.839 14.104 C 1.993 14.104 2.146 14.104 2.299 14.104 C 2.548 14.104 2.795 14.104 3.044 14.103 C 3.286 14.103 3.527 14.102 3.769 14.102 C 3.791 14.102 3.791 14.102 3.815 14.102 C 3.888 14.102 3.963 14.102 4.038 14.102 C 4.658 14.1 5.276 14.1 5.897 14.098 C 5.899 14.085 5.903 14.073 5.904 14.06 C 5.908 14.043 5.911 14.027 5.915 14.01 C 5.918 13.995 5.921 13.978 5.926 13.962 C 5.942 13.897 5.969 13.86 6.018 13.814 C 6.111 13.776 6.194 13.768 6.295 13.768 C 6.317 13.768 6.317 13.768 6.342 13.768 C 6.391 13.768 6.443 13.768 6.493 13.768 C 6.529 13.768 6.567 13.768 6.602 13.768 C 6.701 13.768 6.8 13.768 6.898 13.768 C 6.983 13.768 7.065 13.768 7.148 13.767 C 7.342 13.767 7.537 13.767 7.732 13.767 C 7.933 13.767 8.134 13.767 8.336 13.767 C 8.508 13.766 8.68 13.766 8.853 13.766 C 8.957 13.766 9.059 13.766 9.163 13.766 C 9.259 13.766 9.357 13.766 9.453 13.766 C 9.49 13.766 9.525 13.766 9.56 13.766 C 9.609 13.766 9.657 13.766 9.706 13.766 C 9.721 13.766 9.735 13.766 9.749 13.766 C 9.869 13.767 9.963 13.797 10.053 13.88 C 10.096 13.953 10.097 14.012 10.107 14.098 C 10.733 14.1 11.358 14.102 11.984 14.103 C 12.058 14.103 12.131 14.103 12.205 14.103 C 12.221 14.103 12.234 14.103 12.25 14.103 C 12.489 14.103 12.727 14.104 12.965 14.104 C 13.209 14.105 13.455 14.105 13.698 14.105 C 13.835 14.105 13.972 14.106 14.109 14.106 C 14.238 14.107 14.367 14.107 14.496 14.107 C 14.544 14.107 14.591 14.107 14.638 14.107 C 14.703 14.108 14.77 14.108 14.834 14.107 C 14.852 14.108 14.87 14.108 14.89 14.108 C 15.064 14.106 15.23 14.054 15.359 13.932 C 15.434 13.843 15.481 13.742 15.503 13.625 C 15.464 13.393 15.347 13.224 15.169 13.074 C 14.964 12.933 14.704 12.904 14.464 12.897 C 14.434 12.896 14.434 12.896 14.403 12.895 C 14.338 12.895 14.272 12.894 14.207 12.892 C 14.185 12.891 14.162 12.891 14.139 12.891 C 13.616 12.88 13.095 12.886 12.573 12.891 C 12.451 12.894 12.33 12.895 12.209 12.895 C 11.972 12.898 11.738 12.902 11.503 12.904 C 11.498 12.922 11.498 12.922 11.491 12.942 C 11.484 12.967 11.484 12.967 11.476 12.991 C 11.472 13.009 11.466 13.025 11.461 13.041 C 11.429 13.118 11.373 13.151 11.3 13.187 C 11.266 13.189 11.23 13.19 11.195 13.19 C 11.173 13.19 11.15 13.19 11.126 13.19 C 11.101 13.19 11.076 13.19 11.052 13.19 C 11.025 13.19 10.998 13.192 10.971 13.192 C 10.898 13.192 10.825 13.192 10.751 13.192 C 10.672 13.193 10.593 13.193 10.513 13.193 C 10.358 13.195 10.203 13.195 10.049 13.195 C 9.923 13.196 9.797 13.196 9.67 13.196 C 9.312 13.197 8.956 13.198 8.598 13.199 C 8.578 13.199 8.56 13.199 8.539 13.199 C 8.519 13.199 8.501 13.199 8.481 13.199 C 8.167 13.201 7.856 13.202 7.543 13.203 C 7.222 13.204 6.902 13.205 6.58 13.207 C 6.401 13.208 6.22 13.208 6.039 13.209 C 5.886 13.21 5.732 13.21 5.579 13.211 C 5.5 13.211 5.423 13.211 5.345 13.212 C 5.259 13.212 5.175 13.212 5.089 13.212 C 5.053 13.212 5.053 13.212 5.014 13.212 C 4.703 13.212 4.703 13.212 4.581 13.126 C 4.526 13.055 4.513 12.993 4.5 12.904 C 3.897 12.886 3.293 12.879 2.689 12.878 C 2.589 12.878 2.488 12.878 2.387 12.876 C 2.262 12.875 2.138 12.875 2.013 12.875 C 1.966 12.875 1.92 12.874 1.875 12.874 C 1.442 12.872 1.009 12.898 0.679 13.215 Z" style="fill: rgb(206, 208, 214);"></path>
    <path d="M 8.507 3.102 C 8.747 3.267 8.918 3.486 8.986 3.774 C 8.998 3.845 9 3.914 8.999 3.986 C 8.999 4.001 8.999 4.016 8.999 4.031 C 8.993 4.308 8.867 4.521 8.68 4.72 C 8.463 4.919 8.214 4.987 7.926 4.977 C 7.676 4.961 7.437 4.85 7.266 4.667 C 7.062 4.416 6.982 4.159 7.01 3.836 C 7.058 3.56 7.194 3.336 7.412 3.158 C 7.728 2.938 8.171 2.906 8.507 3.102 Z M 7.679 3.661 C 7.579 3.772 7.544 3.881 7.549 4.029 C 7.569 4.174 7.648 4.264 7.76 4.354 C 7.867 4.432 7.973 4.441 8.103 4.423 C 8.248 4.38 8.328 4.309 8.405 4.18 C 8.463 4.071 8.467 3.952 8.434 3.831 C 8.378 3.706 8.28 3.608 8.155 3.551 C 7.975 3.488 7.819 3.528 7.679 3.661 Z" style="fill: rgb(206, 208, 214);"></path>
</svg>